<svg width="153" height="28" viewBox="0 0 153 28" fill="none" xmlns="http://www.w3.org/2000/svg">
<path fill-rule="evenodd" clip-rule="evenodd" d="M80.8265 0.210348L79.7613 1.00532H79.7868L72.7554 6.25387V0.210348H64.0019V8.8992H69.2123L64.0274 12.7683V27.6348H72.7456V8.8992H72.7564V7.97794L77.9893 4.06477H78.6716C82.1002 4.06477 82.3224 6.33807 82.3224 8.53501V27.6103H91.0759V7.95053C91.0759 3.56743 86.9709 0.211327 80.8275 0.211327L80.8265 0.210348ZM104.368 13.391H119.383L120.934 0.518741L109.663 0.0625148C103.468 -0.19399 96.9178 3.28547 95.5109 10.4705C94.6161 15.1718 95.6039 19.6988 98.0955 22.8699C103.923 30.2811 116.865 28.5561 121.141 19.831L120.37 18.7492C114.709 26.6313 104.885 22.7005 104.367 13.39L104.368 13.391ZM113.153 1.10909L115.397 12.1956H104.363C104.389 6.09331 106.251 1.03762 113.154 1.10909H113.153ZM141.648 0.636224C132.825 -1.5333 126.177 1.9119 124.031 9.95949C121.885 18.0071 125.891 24.8466 134.583 27.1306C143.281 29.4157 150.169 25.386 152.306 17.3727C154.442 9.36032 150.408 3.07008 141.648 0.636224ZM143.614 15.3275C141.871 21.8664 139.02 27.1218 134.877 26.0341C130.733 24.9445 130.876 18.9724 132.619 12.4394C134.362 5.90436 137.213 0.644056 141.357 1.73273C145.496 2.82043 145.359 8.78857 143.614 15.3275Z" fill="#06232A"/>
<path d="M0.800843 8.81505H3.81429V27.4655H0.800843V8.81505ZM2.32714 5.91615C1.66532 5.91615 1.11217 5.69979 0.667696 5.26804C0.223218 4.83629 0 4.28901 0 3.62817C0 2.94187 0.222239 2.38285 0.667696 1.95012C1.11217 1.51837 1.66532 1.302 2.32714 1.302C2.98799 1.302 3.53428 1.51837 3.96701 1.95012C4.39876 2.38285 4.61513 2.94187 4.61513 3.62817C4.61513 4.28901 4.39876 4.83629 3.96701 5.26804C3.53428 5.70077 2.98799 5.91615 2.32714 5.91615Z" fill="#06232A"/>
<path d="M30.7813 27.4658V8.81532H33.7174V11.1415H34.2509C34.6063 10.4806 35.1918 9.87071 36.0053 9.3107C36.8189 8.75168 37.9634 8.47168 39.4378 8.47168C40.8868 8.47168 42.0635 8.78986 42.9662 9.42525C43.8679 10.0616 44.5229 10.837 44.9301 11.7514H45.4637C45.8955 10.836 46.5504 10.0606 47.4286 9.42525C48.3058 8.78986 49.5316 8.47168 51.1088 8.47168C52.3541 8.47168 53.4477 8.72623 54.3885 9.23434C55.3284 9.74343 56.0724 10.4738 56.6197 11.4274C57.166 12.3809 57.4401 13.5195 57.4401 14.8412V27.4658H54.4267V15.1085C54.4267 13.8632 54.0644 12.8773 53.34 12.1528C52.6155 11.4283 51.6051 11.0661 50.3079 11.0661C48.9344 11.0661 47.8095 11.5116 46.9322 12.4015C46.055 13.2924 45.6164 14.5759 45.6164 16.254V27.4677H42.603V15.1105C42.603 13.8651 42.2408 12.8793 41.5163 12.1548C40.7918 11.4303 39.7814 11.0681 38.4842 11.0681C37.1107 11.0681 35.9858 11.5135 35.1085 12.4034C34.2313 13.2944 33.7927 14.5779 33.7927 16.2559V27.4697H30.7803L30.7813 27.4658Z" fill="#06232A"/>
<path d="M17.2157 25.4056C18.9956 25.4056 20.4386 24.8779 21.5449 23.8226C22.6512 22.7681 23.2044 21.2859 23.2044 19.3797V18.9597H17.0258C15.8304 18.9597 14.8455 19.2211 14.0691 19.742C13.2937 20.2638 12.906 21.0451 12.906 22.0877C12.906 23.1304 13.3064 23.944 14.1073 24.5284C14.9081 25.1139 15.9439 25.4056 17.2157 25.4056ZM16.8799 27.9991H16.8672C15.5729 27.9991 14.3922 27.77 13.325 27.3128C12.2569 26.8556 11.4179 26.1938 10.808 25.3293C10.198 24.4648 9.89258 23.4094 9.89258 22.1641C9.89258 20.8923 10.198 19.8438 10.808 19.0175C11.4179 18.1912 12.2569 17.5676 13.325 17.1485C14.3932 16.7295 15.5886 16.519 16.9102 16.519H23.2034V15.1464C23.2034 13.8247 22.8157 12.7821 22.0403 12.0184C21.2649 11.2558 20.1146 10.8749 18.5883 10.8749C17.0874 10.8749 15.9185 11.2372 15.0795 11.9617C14.2404 12.6861 13.6677 13.6593 13.3622 14.8801L10.5407 13.9647C10.8452 12.9231 11.3278 11.9754 11.9897 11.1236C12.6505 10.2719 13.5336 9.58556 14.6399 9.06374C15.7462 8.54289 17.0747 8.28149 18.6255 8.28149C21.0153 8.28149 22.8715 8.89828 24.1942 10.1309C25.5159 11.3644 26.1777 13.1003 26.1777 15.3373V23.7667C26.1777 24.5294 26.5341 24.9112 27.2458 24.9112H28.962V27.4665H26.3304C25.4914 27.4665 24.8168 27.2315 24.3087 26.7606C23.7996 26.2907 23.5461 25.6612 23.5461 24.8721V24.6812H23.0889C22.8089 25.1648 22.4339 25.667 21.964 26.1879C21.494 26.7087 20.8518 27.1415 20.0382 27.4851C19.2256 27.8277 18.1732 27.9991 16.8799 28.0001V27.9991Z" fill="#06232A"/>
</svg>
